<?xml version="1.0" standalone="no"?>
<!DOCTYPE svg PUBLIC "-//W3C//DTD SVG 1.1//EN" "http://www.w3.org/Graphics/SVG/1.1/DTD/svg11.dtd" >
<!--
2013-9-30: Created.
-->
<svg>
<metadata>
Created by iconfont
</metadata>
<defs>

<font id="iconfont" horiz-adv-x="1024" >
  <font-face
    font-family="iconfont"
    font-weight="500"
    font-stretch="normal"
    units-per-em="1024"
    ascent="896"
    descent="-128"
  />
    <missing-glyph />
    
    <glyph glyph-name="fanhui" unicode="&#58882;" d="M766.862-125.72400000000005c-10.24 0-20.594 3.64-28.444 10.922L228.693 357.60400000000004c-15.70100001 14.563-15.701 38.229 0 52.792L738.418 882.802c15.70100001 14.563 41.187 14.563 56.889 0 15.701-14.564 15.70100001-38.23 0-52.793L314.027 384l481.28-446.009c15.70100001-14.563 15.70100001-38.23 0-52.793-7.851-7.282-18.205-10.922-28.445-10.922z"  horiz-adv-x="1024" />

    
    <glyph glyph-name="xiayibu1" unicode="&#58981;" d="M541.24734553 383.24739449000003c2.12553761 9.4468333-4.72341691 19.83835049-12.32811792 27.39581704L295.62967415 643.60212622A30.37156957 30.37156957 0 0 1 252.55211287 600.5245655l222.23675875-216.75759535-222.23675875-216.3324876a30.32433563 30.32433563 0 0 1 21.44431246-51.95758444 30.27710166 30.27710166 0 0 1 21.63324881 8.97449161l233.38402191 232.48657353C535.48477733 364.35372739 542.99500989 373.80056068 541.24734553 383.24739449000003zM814.92211305 410.59597756L581.39638821 643.60212622A30.37156957 30.37156957 0 0 1 538.41329539 600.5245655l222.28399324-216.89929775-222.28399324-216.1907852a30.32433563 30.32433563 0 0 1 21.44431245-51.95758444 30.27710166 30.27710166 0 0 1 21.44431193 8.88002369l233.52572483 232.48657302c6.42384679 7.51023258 14.17025019 16.6264271 12.32811791 26.30943125 2.22000606 9.54130173-4.72341691 19.93281893-12.23364946 27.44305149z"  horiz-adv-x="1114" />

    
    <glyph glyph-name="tuichu" unicode="&#58980;" d="M925.07577515 408.91094971L791.34140015 542.6453247100001a30.13357544 30.13357544 0 0 1-42.609375-42.609375L835.33670044 413.42962646H463.60467529a30.07342529 30.07342529 0 1 1 0-60.26715088h363.11407471l-77.98672485-77.98672485a30.13357544 30.13357544 0 0 1 42.609375-42.609375l133.734375 133.734375a30.13357544 30.13357544 0 0 1 0 42.609375M767.47579956 124.02420043999996a30.13357544 30.13357544 0 0 0-2.29064941-42.54840088A404.21722412 404.21722412 0 0 0 495.125-21.703125 405.48202515 405.48202515 0 0 0 90.125 383.296875 405.48202515 405.48202515 0 0 0 495.125 788.296875c99.80392456 0 195.68984985-36.64215088 270.06015015-103.17810059a30.13357544 30.13357544 0 0 0-40.25939942-44.83987426A344.31015015 344.31015015 0 0 1 495.125 728.02890015 345.15472412 345.15472412 0 0 1 150.39297485 383.296875 345.15472412 345.15472412 0 0 1 495.125 38.56484984999997a343.88827515 343.88827515 0 0 1 229.80157471 87.81015015 30.01327515 30.01327515 0 0 0 42.54922485-2.35079956"  horiz-adv-x="1024" />

    
    <glyph glyph-name="daochu1" unicode="&#58893;" d="M341.333333 512l0-256L597.333333 256l1e-8-170.666667L896.00000001 384 597.33333301 682.666667l-1e-8-170.666667z m-85.33333299 170.666667l0-597.333334-85.33333301 0L170.666667 682.666667z"  horiz-adv-x="1024" />

    
    <glyph glyph-name="vip" unicode="&#58909;" d="M512-32C741.750442-32 928 154.249558 928 384 928 613.750441 741.750442 800 512 800 282.249559 800 96 613.750441 96 384 96 154.249558 282.249559-32 512-32L512-32ZM268.67019 439.561286 244.154002 472.073738 349.711833 565.093566C349.711833 565.093566 372.225099 586.103616 401.244487 585.599335 401.244487 585.599335 442.265859 590.853296 456.519773 540.583648 462.776861 520.830482 490.282957 362.040906 495.538256 341.031478 500.786483 320.021427 513.044576 302.519597 523.307475 302.767888 532.817619 303.023875 544.066854 308.775075 559.321901 331.034285 576.090269 357.795536 593.348237 378.293581 604.605197 424.054144 607.602147 444.266573 610.357853 478.818701 570.322813 480.06789 549.322806 480.565099 535.054067 470.560835 535.054067 470.560835 535.054067 470.560835 535.310144 522.320862 593.341165 566.583945 612.413517 582.33941 687.137574 614.099227 730.417949 568.089776 751.515744 542.826631 760.183014 509.140288 744.927968 455.30968 719.906698 367.039501 650.874797 282.7664 621.848365 249.516829 621.848365 249.516829 546.56648 157.739085 488.03103 147.222813 477.527507 145.79225 443.380237 140.477821 417.869987 186.615309 396.109472 233.873949 376.22384 302.888173 357.459685 381.289136 357.459685 381.289136 343.951451 439.426205 326.204505 457.131315 321.068866 462.49079 311.310368 467.940925 301.559625 463.063267 293.111765 458.004202 268.67019 439.561286 268.67019 439.561286L268.67019 439.561286Z"  horiz-adv-x="1024" />

    
    <glyph glyph-name="xiazai" unicode="&#59063;" d="M531.2 121.60000000000002l281.6 281.6L576 403.2 576 768 448 768l0-364.8L211.2 403.2l281.6-281.6C499.2 108.79999999999995 524.8 108.79999999999995 531.2 121.60000000000002zM211.2 32l601.6 0 0-32-601.6 0 0 32Z"  horiz-adv-x="1024" />

    
    <glyph glyph-name="duigou" unicode="&#58930;" d="M512 896C228.266667 896 0 667.733333 0 384c0-283.733333 228.266667-512 512-512 283.733333 0 512 228.266667 512 512C1024 667.733333 795.733333 896 512 896zM832 512 492.8 172.8C469.333333 149.333333 426.666667 149.333333 403.2 172.8L192 384c0 0-32 32 0 64s64 0 64 0l192-192 320 320c0 0 32 32 64 0S832 512 832 512z"  horiz-adv-x="1024" />

    
    <glyph glyph-name="gantanhaox" unicode="&#59029;" d="M512 896C230.4 896 0 665.6 0 384s230.4-512 512-512 512 230.4 512 512-230.4 512-512 512z m0-836.266667c-34.133333 0-68.266667 34.133333-68.266667 68.266667s34.133333 68.266667 68.266667 68.266667 68.266667-34.133333 68.266667-68.266667-34.133333-68.266667-68.266667-68.266667z m51.2 221.866667H460.8l-25.6 435.2h153.6l-25.6-435.2z"  horiz-adv-x="1024" />

    
    <glyph glyph-name="lianjie1" unicode="&#58944;" d="M516.096 795.77088c226.22208 0 409.6-183.37792 409.6-409.6s-183.37792-409.6-409.6-409.6S106.496 159.9488 106.496 386.17088 289.87392 795.77088 516.096 795.77088z m-139.264-359.6288l-66.9696-66.9696a63.16032 63.16032 0 0 1 0-89.2928l89.2928-89.2928a63.16032 63.16032 0 0 1 89.2928 0l66.9696 66.9696-44.6464 44.6464-44.6464-44.6464a31.5392 31.5392 0 0 0-44.6464 0L376.832 302.20288a31.5392 31.5392 0 0 0 0 44.6464l44.6464 44.6464-44.6464 44.6464z m13.9264 98.01728A31.5392 31.5392 0 0 1 376.832 480.78848l223.232-223.232a31.5392 31.5392 0 0 1 44.6464 44.6464L421.4784 525.43488a31.5392 31.5392 0 0 1-30.72 8.72448z m187.02336 76.75904c-16.75264 0-32.768-6.67648-44.6464-18.51392L466.16576 525.43488l44.6464-44.6464 44.6464 44.6464a31.5392 31.5392 0 0 0 44.6464 0l44.6464-44.6464a31.5392 31.5392 0 0 0 0-44.6464l-44.6464-44.6464 44.6464-44.6464 66.92864 66.9696a63.16032 63.16032 0 0 1 0 89.2928l-89.25184 89.2928a63.16032 63.16032 0 0 1-44.6464 18.51392z"  horiz-adv-x="1024" />

    
    <glyph glyph-name="bianji" unicode="&#58949;" d="M348.312 228.972c18.082-18.081 46.632-18.081 63.762 0L909.8 726.697c18.082 18.082 18.082 46.632 0 64.714s-46.632 18.082-63.762 0L348.312 293.686c-18.082-18.082-18.082-46.632 0-64.714zM899.33 452.616c-24.743 0-45.68-19.986-45.68-45.68v-364.491h-683.3v683.3h364.49c24.744 0 44.729 19.986 45.68 45.681 0 24.744-19.985 45.68-44.728 45.68H124.669c-24.743 0-45.68-19.985-45.68-45.68v-774.662c0-12.371 4.758-23.792 13.323-32.357 8.565-8.565 19.985-13.323 32.357-13.323h774.662c12.372 0 23.792 4.758 32.357 13.323 8.565 8.565 13.323 19.986 13.323 32.357V406.935c0 25.695-20.937 45.68-45.68 45.68z"  horiz-adv-x="1024" />

    
    <glyph glyph-name="sousuo" unicode="&#58883;" d="M870.1 62.7l-155.8 162c44.7 54.9 71.6 125 71.6 201.1 0 176-143.3 319.2-319.4 319.2S147 601.9 147 425.8s143.3-319.3 319.4-319.3c83.1 0 158.8 31.9 215.7 84l154.2-160.4c4.6-4.8 10.7-7.2 16.9-7.2 5.8 0 11.7 2.2 16.2 6.5 9.3 9.1 9.6 24 0.7 33.3zM193.9 425.8c0 150.2 122.3 272.4 272.6 272.4S739.1 576 739.1 425.8c0-70.3-26.8-134.5-70.8-182.9-0.8-0.6-1.5-1.2-2.2-1.8-1.3-1.3-2.4-2.6-3.4-4.1-49.6-51.5-119.3-83.6-196.3-83.6-150.3 0-272.5 122.2-272.5 272.4z"  horiz-adv-x="1024" />

    
    <glyph glyph-name="down" unicode="&#58880;" d="M514.41664 158.63296000000003a25.7536 25.7536 0 0 0-17.6384 6.93248 10.56768 10.56768 0 0 1-0.94208 1.05984 14.9248 14.9248 0 0 1-2.72384 2.03264l-398.42304 394.8544a25.78432 25.78432 0 0 0-7.68 18.30912 25.75872 25.75872 0 0 0 7.51616 18.36544 25.76896 25.76896 0 0 0 18.42176 7.68c6.8864 0 13.36832-2.66752 18.25792-7.51616l382.84288-379.40736 377.59488 381.04576a25.82016 25.82016 0 0 0 18.7904 8.064c6.72256 0 13.1072-2.57024 17.95584-7.23456a25.73312 25.73312 0 0 0 7.94624-18.16576 25.74848 25.74848 0 0 0-7.22944-18.46272l-396.29312-399.89248a25.74848 25.74848 0 0 0-18.39616-7.66464z"  horiz-adv-x="1024" />

    
    <glyph glyph-name="xiayibu" unicode="&#60064;" d="M489.4-9.1l396.2 393-396.2 393c-12.2 12.1-12.6 32.7 0 45.7 12.7 12.5 33.4 12.5 46.1 0l414.8-411.8c7.2-7.2 10.4-17 9-26.4 1.4-9.9-1.4-20.2-9-27.3L535.5-54.8c-12.2-12.1-33-12.5-46.1 0-12.6 12.6-12.6 33.2 0 45.7z"  horiz-adv-x="1024" />

    
    <glyph glyph-name="bianji5" unicode="&#59004;" d="M512 713.728c-182.272 0-329.728-147.456-329.728-329.728 0-182.272 147.456-329.728 329.728-329.728S841.728 201.728 841.728 384c0 182.272-147.456 329.728-329.728 329.728zM603.136 537.6c10.24 9.216 25.6 9.216 35.84 0l26.624-26.624c9.216-10.24 9.216-25.6 0-35.84l-13.312-13.312-63.488 63.488 14.336 12.288zM350.208 223.232v63.488l218.112 218.112 63.488-63.488-218.112-218.112h-63.488z m323.584 0H505.856v26.624h167.936v-26.624z"  horiz-adv-x="1024" />

    
    <glyph glyph-name="shuaxin" unicode="&#58943;" d="M989.888 486.4V725.312l-77.952-77.888A477.568 477.568 0 0 1 513.408 861.888a477.888 477.888 0 1 1 442.88-657.664 40.96 40.96 0 1 1-75.84 30.848A396.16 396.16 0 0 0 117.44 384a395.968 395.968 0 0 0 735.232 204.16l-101.76-101.76h238.976z"  horiz-adv-x="1024" />

    
    <glyph glyph-name="xingbienvxianxing1" unicode="&#58887;" d="M397.084 228.892l-72.334-72.448 93.753-93.696a28.444 28.444 0 0 0-40.22-40.22l-93.839 93.724-122.14-122.14a28.444 28.444 0 1 0-40.22 40.22l122.14 122.14-93.696 93.64a28.444 28.444 0 0 0 40.22 40.22l93.696-93.639 72.42 72.42a311.609 311.609 0 0 0-72.42 200.22c0 172.8 140.09 312.89 312.89 312.89s312.888-140.09 312.888-312.89-140.089-312.889-312.889-312.889c-76.145 0-145.977 27.222-200.249 72.448z m200.25-15.559a256 256 0 1 1 0 512 256 256 0 0 1 0-512z"  horiz-adv-x="1024" />

    
    <glyph glyph-name="xingbienanxianxing" unicode="&#58901;" d="M853.333333 685.112889l-186.225777-186.225778A311.608889 311.608889 0 0 0 739.555556 298.666667c0-172.8-140.088889-312.888889-312.888889-312.888889S113.777778 125.866667 113.777778 298.666667s140.088889 312.888889 312.888889 312.888889c76.145778 0 145.976889-27.221333 200.248889-72.448L813.084444 725.333333H625.777778a28.444444 28.444444 0 0 0 0 56.888889h256a28.444444 28.444444 0 0 0 28.444444-28.444444v-256a28.444444 28.444444 0 0 0-56.888889 0V685.112889zM426.666667 42.666667a256 256 0 1 1 0 512 256 256 0 0 1 0-512z"  horiz-adv-x="1024" />

    
    <glyph glyph-name="jiahao" unicode="&#58884;" d="M828.02 699.482C743.477 783.616 631.108 829.95 511.546 829.95c-119.558 0-231.954-46.333-316.5-130.467-84.578-84.162-131.17-196.112-131.17-315.195 0-119.112 46.592-231.028 131.135-315.189 84.548-84.133 196.946-130.467 316.507-130.467 119.56 0 231.96 46.334 316.474 130.467 84.611 84.19 131.198 196.14 131.169 315.222 0.03 119.086-46.529 231-131.141 315.162z m-92.63-347.167H543.525v-191.863c0-17.683-14.326-31.975-31.98-31.975-17.646 0-31.973 14.292-31.973 31.975V352.315H287.711c-17.648 0-31.972 14.324-31.972 31.972 0 17.653 14.324 31.98 31.972 31.98h191.863v191.86c0 17.649 14.326 31.975 31.973 31.975 17.654 0 31.98-14.326 31.98-31.974v-191.861h191.862c17.682 0 31.973-14.327 31.973-31.98 0-17.648-14.291-31.972-31.973-31.972z m0 0"  horiz-adv-x="1024" />

    
    <glyph glyph-name="juzhen" unicode="&#60470;" d="M0 896h438.848v-438.848H0zM0 310.848h438.848V-128H0zM585.152 896H1024v-438.848H585.152zM585.152 310.848H1024V-128H585.152z"  horiz-adv-x="1024" />

    
    <glyph glyph-name="lianjie" unicode="&#59263;" d="M63.9 384.1c0 247.1 200.3 447.4 447.4 447.4s447.4-200.3 447.4-447.4-200.3-447.4-447.4-447.4S63.9 137 63.9 384.1z m550.9 39.3c-0.3 0.6-0.5 1.1-0.8 1.7-0.1 0.1-0.1 0.2-0.2 0.4-6.9 13.8-21.6 22.8-38 21.5-21.4-1.7-37.5-20.5-35.8-41.9 0.5-5.5 2-10.6 4.4-15.2 10.9-24.5 6.1-54.3-13.9-74.4l-104.8-105c-26-26-68.3-26-94.3 0s-26 68.3 0 94.3l39.1 39.1-0.3 0.3c9.1 7.8 14.3 19.7 13.3 32.5-1.7 21.4-20.5 37.5-41.9 35.8-10.3-0.8-19.3-5.5-25.7-12.6l-0.1 0.1-39.8-39.8c-56.6-56.6-56.6-148.3 0-204.9 56.6-56.6 148.3-56.6 204.9 0L586 260.4c43.8 44.2 53.3 109.5 28.8 163z m137.7 200c-56.6 56.6-148.3 56.6-204.9 0L442.5 518.2c-44-44-53.6-109.3-29.1-162.9 0.3-0.6 0.5-1.1 0.8-1.7 0.1-0.1 0.1-0.2 0.2-0.4 6.9-13.8 21.6-22.8 38-21.5 21.4 1.7 37.5 20.5 35.8 41.9-0.5 5.5-2 10.6-4.4 15.2-10.9 24.5-6.1 54.3 13.9 74.4l104.9 104.9c26 26 68.3 26 94.3 0s26-68.3 0-94.3l-39.1-39.1 0.3-0.3c-9.1-7.8-14.3-19.7-13.3-32.5 1.7-21.4 20.5-37.5 41.9-35.8 10.3 0.8 19.3 5.5 25.7 12.6l0.1-0.1 39.8 39.8c56.7 56.7 56.7 148.5 0.2 205z"  horiz-adv-x="1024" />

    


  </font>
</defs>
</svg>
